# xmcd CD database file
#
# Track frame offsets:
#	150
#	10301
#	22654
#	33922
#	48334
#	59625
#	71009
#	80994
#	91301
#	110381
#	122592
#	139586
#	154669
#	164788
#	177181
#	188465
#
# Disc length: 2658 seconds
#
# Revision: 2
# Processed by: cddbd v1.5.2PL0 Copyright (c) Steve Scherf et al.
# Submitted via: CDex 1.51
#
DISCID=ce0a6010
DTITLE=Diverse - Seemannslieder
DYEAR=2007
DGENRE=Seemanslieder
TTITLE0=Jan Maaten Chorus - Blow, Boys Blow
TTITLE1=Hamburger Matrosenchor - Der Whisky ist des Seemanna Trost ( Whisky Johnny)
TTITLE2=A.M. Matrosenchor - Down in Rio
TTITLE3=Hamburger Matrosenchor - Ein Schfflein sah ich fahren
TTITLE4=A.M. Matrosenchor - Good Night Ladies
TTITLE5=Jan Maaten Chorus - Johnny
TTITLE6=A.M. Matrosenchor - My Bonnie
TTITLE7=A.M. Matrosenchor - Old Black Joe
TTITLE8=Jan Maaten Chorus - Rio Grande
TTITLE9=Matrosenchor blaue Jungs - Rolling Home
TTITLE10=Jan Maaten Chorus - Sailing
TTITLE11=A.M. Matrosenchor - Up She Goes
TTITLE12=A.M. Matrosenchor - What Shall We Do With The Drunken Sailor
TTITLE13=A.M. Matrosenchor - Wisky Johnny
TTITLE14=A.M. Matrosenchor - Wir lieben die Stürme
TTITLE15=Jan Maaten Chorus - Yellow Rose Of Texas
EXTD=YEAR: 2007
EXTT0=
EXTT1=
EXTT2=
EXTT3=
EXTT4=
EXTT5=
EXTT6=
EXTT7=
EXTT8=
EXTT9=
EXTT10=
EXTT11=
EXTT12=
EXTT13=
EXTT14=
EXTT15=
PLAYORDER=
